#!OML:ASF F:\VICON\USERDATA\INSTALL\rory3\rory3.ASF
:FULLY-SPECIFIED
:DEGREES
120
root -12.3825 15.8011 7.77848 -182.081 51.8662 -182.882
lowerback 8.3149 -1.03339 -3.38202
upperback -0.296108 -1.70406 -0.24465
thorax -4.88419 -0.752524 1.85602
lowerneck -11.5716 -7.59919 -12.2529
upperneck 29.5262 -8.67008 5.85823
head 12.5561 -4.13967 3.13614
rclavicle 3.95613e-014 -1.3418e-014
rhumerus -39.2888 -11.9986 -78.0224
rradius 21.1214
rwrist 20.5775
rhand -16.9177 15.4491
rfingers 7.12502
rthumb 9.31474 -14.3252
lclavicle 3.95613e-014 -1.3418e-014
lhumerus -34.76 14.1194 80.1146
lradius 19.6805
lwrist -10.2896
lhand -12.8618 12.8626
lfingers 7.12502
lthumb 13.2264 42.423
rfemur -24.7845 7.15847 18.9685
rtibia 28.2947
rfoot -9.5417 -22.2175
rtoes 4.60734
lfemur 19.0096 -5.54582 -25.8692
ltibia 13.752
lfoot -0.0812193 2.67963
ltoes -13.4299
121
root -12.2566 15.8145 7.72289 -181.664 52.116 -182.363
lowerback 8.09957 -1.01387 -3.03055
upperback -0.376822 -1.63747 -0.17448
thorax -4.85818 -0.728842 1.71963
lowerneck -11.5928 -7.55245 -12.1758
upperneck 29.6527 -8.57116 5.71957
head 12.5899 -4.10079 3.08771
rclavicle -4.96837e-014 2.18663e-015
rhumerus -39.2369 -11.9039 -78.0456
rradius 21.0958
rwrist 20.7804
rhand -16.9582 15.5693
rfingers 7.12502
rthumb 9.27563 -14.2067
lclavicle -4.96837e-014 2.18663e-015
lhumerus -35.0313 14.448 79.7639
lradius 19.6461
lwrist -10.5705
lhand -12.7976 12.9225
lfingers 7.12502
lthumb 13.2883 42.4789
rfemur -24.325 6.92128 19.6079
rtibia 28.3591
rfoot -9.2509 -21.6469
rtoes 5.0556
lfemur 17.9635 -4.9917 -25.2628
ltibia 16.2811
lfoot 0.692627 2.80007
ltoes -12.8491
122
root -12.1345 15.8218 7.66879 -181.211 52.2839 -181.755
lowerback 7.9885 -1.01677 -2.65767
upperback -0.454518 -1.60004 -0.043501
thorax -4.88458 -0.718436 1.64053
lowerneck -11.6957 -7.52462 -12.1572
upperneck 29.8608 -8.4662 5.55568
head 12.6771 -4.06684 3.03913
rclavicle 4.79133e-014 4.47266e-016
rhumerus -39.1488 -11.7747 -77.9976
rradius 21.1105
rwrist 20.7721
rhand -16.8394 16.0785
rfingers 7.12502
rthumb 9.39034 -13.6923
lclavicle 4.79133e-014 4.47266e-016
lhumerus -35.3244 14.7001 79.5401
lradius 19.7099
lwrist -10.6492
lhand -12.8016 12.9196
lfingers 7.12502
lthumb 13.2844 42.4762
rfemur -23.8464 6.89146 20.2497
rtibia 28.4681
rfoot -9.20894 -21.1621
rtoes 5.37978
lfemur 16.9929 -4.41544 -24.5607
ltibia 18.6698
lfoot 1.53562 2.74469
ltoes -12.1144
123
root -12.0153 15.8276 7.61872 -180.932 52.4067 -181.436
lowerback 7.89588 -1.01515 -2.45842
upperback -0.558254 -1.57727 0.0159382
thorax -4.94527 -0.71075 1.58708
lowerneck -11.8743 -7.50031 -12.143
upperneck 30.1467 -8.37251 5.44959
head 12.8174 -4.02933 3.01144
rclavicle -3.48215e-014 -6.11263e-015
rhumerus -39.0474 -11.665 -78.0269
rradius 21.1837
rwrist 20.4838
rhand -16.7715 16.0251
rfingers 7.12502
rthumb 9.45581 -13.7427
lclavicle -3.48215e-014 -6.11263e-015
lhumerus -35.6204 14.7154 79.3861
lradius 19.8485
lwrist -10.4399
lhand -12.8187 12.8515
lfingers 7.12502
lthumb 13.2679 42.4092
rfemur -23.4743 6.90805 20.672
rtibia 28.658
rfoot -9.44303 -20.7808
rtoes 5.75723
lfemur 15.9889 -3.92899 -24.0628
ltibia 20.9417
lfoot 2.68116 2.58714
ltoes -13.2447
124
root -11.8957 15.8301 7.57102 -180.848 52.5352 -181.333
lowerback 7.80636 -1.00286 -2.42912
upperback -0.65377 -1.55757 0.0381404
thorax -4.99559 -0.700611 1.59067
lowerneck -11.9298 -7.4514 -12.1394
upperneck 30.3174 -8.26385 5.37268
head 12.8849 -3.98586 3.00073
rclavicle -7.26682e-014 2.43511e-015
rhumerus -39.0238 -11.3672 -78.1796
rradius 21.4196
rwrist 19.9486
rhand -16.7683 15.7965
rfingers 7.12502
rthumb 9.45889 -13.9712
lclavicle -7.26682e-014 2.43511e-015
lhumerus -35.9033 14.6894 79.2558
lradius 20.0036
lwrist -10.1929
lhand -12.8545 12.8775
lfingers 7.12502
lthumb 13.2335 42.4374
rfemur -23.0696 6.97924 20.9413
rtibia 28.8428
rfoot -9.9298 -20.4467
rtoes 6.71564
lfemur 14.8942 -3.42338 -23.7155
ltibia 23.3427
lfoot 3.80165 2.67861
ltoes -13.976
125
root -11.7769 15.8298 7.52324 -180.622 52.6347 -180.987
lowerback 7.74705 -1.02803 -2.2799
upperback -0.719601 -1.5733 0.128509
thorax -5.03151 -0.71077 1.60224
lowerneck -11.9345 -7.38542 -12.1195
upperneck 30.389 -8.13279 5.26065
head 12.8953 -3.93778 2.97643
rclavicle -1.00697e-014 -5.11871e-015
rhumerus -38.9381 -11.0095 -78.2972
rradius 21.6459
rwrist 19.643
rhand -17.0176 15.5953
rfingers 7.12502
rthumb 9.21833 -14.1831
lclavicle -1.00697e-014 -5.11871e-015
lhumerus -36.0975 14.8041 79.1197
lradius 20.1205
lwrist -10.0912
lhand -12.6201 12.9414
lfingers 7.12502
lthumb 13.4593 42.4865
rfemur -22.5961 7.06553 21.3702
rtibia 29.0174
rfoot -10.3916 -20.1527
rtoes 7.3987
lfemur 13.7951 -2.89207 -23.1853
ltibia 25.8533
lfoot 4.6849 3.38254
ltoes -11.6567
126
root -11.6616 15.8373 7.47905 -180.196 52.6878 -180.355
lowerback 7.81383 -1.04391 -1.97423
upperback -0.780309 -1.56214 0.260232
thorax -5.13737 -0.71037 1.56882
lowerneck -11.9932 -7.35336 -12.0605
upperneck 30.4721 -8.06489 5.17437
head 12.9276 -3.90953 2.94405
rclavicle 3.56182e-014 -2.38542e-015
rhumerus -38.8269 -10.485 -78.5781
rradius 21.9389
rwrist 19.04
rhand -17.2755 14.9968
rfingers 7.12502
rthumb 8.96945 -14.7926
lclavicle 3.56182e-014 -2.38542e-015
lhumerus -36.2185 14.9735 78.973
lradius 20.2135
lwrist -10.0137
lhand -12.5008 12.7996
lfingers 7.12502
lthumb 13.5743 42.3371
rfemur -22.0834 7.04666 22.0094
rtibia 29.1416
rfoot -10.7497 -19.8493
rtoes 7.85547
lfemur 12.6732 -2.39534 -22.4029
ltibia 28.4497
lfoot 5.86727 3.87317
ltoes -9.56986
127
root -11.5494 15.8422 7.43802 -179.895 52.7155 -179.879
lowerback 7.9406 -1.02614 -1.73996
upperback -0.8274 -1.51518 0.337263
thorax -5.26402 -0.690861 1.51555
lowerneck -12.0862 -7.35563 -11.9607
upperneck 30.5193 -8.0553 5.08134
head 12.9556 -3.90413 2.89078
rclavicle -2.82336e-014 -2.08724e-015
rhumerus -38.7585 -9.84759 -78.993
rradius 22.427
rwrist 17.9789
rhand -17.2194 14.5959
rfingers 7.12502
rthumb 9.02365 -15.1911
lclavicle -2.82336e-014 -2.08724e-015
lhumerus -36.3257 14.7937 78.9974
lradius 20.4363
lwrist -9.57701
lhand -12.6842 12.7796
lfingers 7.12502
lthumb 13.3976 42.3288
rfemur -21.5543 7.01596 22.5538
rtibia 29.1993
rfoot -11.0386 -19.5965
rtoes 8.00226
lfemur 11.4611 -2.00326 -21.7428
ltibia 31.1813
lfoot 7.2074 4.0011
ltoes -8.44893
128
root -11.4385 15.8402 7.39052 -179.622 52.6989 -179.364
lowerback 8.0384 -1.0182 -1.36344
upperback -0.843028 -1.46515 0.414904
thorax -5.34467 -0.674861 1.38124
lowerneck -12.0745 -7.37316 -11.9945
upperneck 30.4688 -8.06938 5.05894
head 12.9347 -3.9181 2.88443
rclavicle -3.69211e-014 5.61567e-015
rhumerus -38.6888 -9.46774 -79.1376
rradius 22.8678
rwrist 17.3959
rhand -16.9953 14.4483
rfingers 7.12502
rthumb 9.23987 -15.3292
lclavicle -3.69211e-014 5.61567e-015
lhumerus -36.3737 14.4187 79.1743
lradius 20.6793
lwrist -9.09517
lhand -12.8052 12.8621
lfingers 7.12502
lthumb 13.281 42.4189
rfemur -20.9287 6.79662 23.1224
rtibia 29.2225
rfoot -11.2581 -19.3225
rtoes 7.56628
lfemur 10.2977 -1.77994 -21.2056
ltibia 33.992
lfoot 8.28414 4.26378
ltoes -7.79182
129
root -11.3307 15.8364 7.3462 -179.375 52.6562 -178.847
lowerback 8.19577 -1.02056 -1.00353
upperback -0.854486 -1.43051 0.475127
thorax -5.45394 -0.666092 1.2412
lowerneck -12.0749 -7.37996 -12.0291
upperneck 30.4426 -8.09676 5.13491
head 12.9321 -3.92499 2.91506
rclavicle 2.87694e-014 2.33572e-015
rhumerus -38.5621 -9.72998 -78.9898
rradius 23.0593
rwrist 17.6877
rhand -17.0115 14.6734
rfingers 7.12502
rthumb 9.22422 -15.1048
lclavicle 2.87694e-014 2.33572e-015
lhumerus -36.3735 14.2478 79.1942
lradius 20.8545
lwrist -9.00743
lhand -12.8505 12.6178
lfingers 7.12502
lthumb 13.2373 42.1775
rfemur -20.307 6.49473 23.7091
rtibia 29.2611
rfoot -11.4165 -19.1502
rtoes 6.86092
lfemur 9.09561 -1.61958 -20.7076
ltibia 36.7713
lfoot 9.38425 4.55239
ltoes -8.36223
130
root -11.2266 15.8308 7.30925 -179.215 52.6035 -178.43
lowerback 8.43227 -1.03343 -0.806152
upperback -0.857961 -1.4253 0.532765
thorax -5.59498 -0.666887 1.1952
lowerneck -12.0917 -7.36665 -11.9856
upperneck 30.3899 -8.10324 5.17236
head 12.9128 -3.91925 2.92002
rclavicle -2.00866e-014 8.94531e-015
rhumerus -38.372 -9.80818 -79.0329
rradius 23.2539
rwrist 17.4886
rhand -17.1376 14.8742
rfingers 7.12502
rthumb 9.10255 -14.9094
lclavicle -2.00866e-014 8.94531e-015
lhumerus -36.3445 14.0709 79.2121
lradius 21.1026
lwrist -8.82725
lhand -12.8779 12.5424
lfingers 7.12502
lthumb 13.2109 42.1038
rfemur -19.6969 6.25793 24.254
rtibia 29.2732
rfoot -11.3424 -19.1362
rtoes 5.89878
lfemur 7.81112 -1.44334 -20.2211
ltibia 39.4877
lfoot 10.7458 4.72483
ltoes -8.52928
131
root -11.1254 15.8249 7.27113 -179.054 52.4815 -178.036
lowerback 8.68028 -1.07816 -0.637731
upperback -0.894434 -1.46187 0.635094
thorax -5.77447 -0.686409 1.21856
lowerneck -12.0735 -7.34757 -11.9557
upperneck 30.3294 -8.06176 5.08894
head 12.8737 -3.90924 2.88834
rclavicle -6.91398e-015 1.09332e-015
rhumerus -38.2469 -9.01922 -79.4511
rradius 23.7565
rwrist 16.4527
rhand -17.1524 15.2037
rfingers 7.12502
rthumb 9.08826 -14.5805
lclavicle -6.91398e-015 1.09332e-015
lhumerus -36.345 14.1253 79.2018
lradius 21.2882
lwrist -8.80416
lhand -12.7875 12.5617
lfingers 7.12502
lthumb 13.298 42.1174
rfemur -19.1003 5.79667 24.7838
rtibia 29.2121
rfoot -10.9128 -19.1595
rtoes 3.48674
lfemur 6.47436 -1.34888 -19.7569
ltibia 42.149
lfoot 12.3201 4.96774
ltoes -7.1084
